<svg width="32" height="32" viewBox="0 0 32 32" fill="none" xmlns="http://www.w3.org/2000/svg">
<path d="M29.4058 2.91971C29.9094 3.42389 30.2894 4.03379 30.517 4.70321C30.7445 5.37264 30.8137 6.08403 30.7191 6.78352C30.6246 7.48301 30.3689 8.15224 29.9714 8.74054C29.5739 9.32883 29.045 9.82076 28.4248 10.1791C23.9539 12.7553 18.7366 13.8036 13.592 13.1595C8.44742 12.5154 3.66663 10.2154 0 6.62038L6.61762 0C8.80883 2.147 11.6626 3.52408 14.735 3.91703C17.8074 4.30998 20.9261 3.69676 23.6061 2.17278C24.5184 1.64592 25.584 1.43257 26.6341 1.56653C27.6841 1.7005 28.6585 2.17412 29.4028 2.91232L29.4058 2.91971Z" fill="#9C5AFF"/>
<path d="M29.3771 2.89011C28.4902 2.02131 27.2875 1.53326 26.0336 1.53326C24.7796 1.53326 23.577 2.02131 22.6901 2.89011L2.61837 22.5619C1.73192 23.4312 1.23395 24.6099 1.23395 25.8388C1.23395 27.0678 1.73192 28.2465 2.61837 29.1158C3.05733 29.5463 3.57855 29.8878 4.15225 30.1209C4.72595 30.3539 5.34088 30.4738 5.96189 30.4738C6.58291 30.4738 7.19784 30.3539 7.77154 30.1209C8.34524 29.8878 8.86646 29.5463 9.30541 29.1158L29.3771 9.44393C29.8164 9.01372 30.1649 8.50288 30.4026 7.94061C30.6404 7.37834 30.7628 6.77567 30.7628 6.16702C30.7628 5.55838 30.6404 4.9557 30.4026 4.39343C30.1649 3.83116 29.8164 3.32032 29.3771 2.89011Z" fill="url(#paint0_linear_1_85)"/>
<path d="M2.59422 29.0788C2.09051 28.5748 1.71042 27.9652 1.48276 27.2959C1.25509 26.6267 1.18583 25.9154 1.28021 25.216C1.37459 24.5167 1.63014 23.8475 2.02749 23.2593C2.42485 22.6711 2.95359 22.1792 3.57366 21.8209C8.04492 19.2452 13.2621 18.197 18.4068 18.8408C23.5515 19.4845 28.3325 21.7839 32 25.3781L25.3794 32C23.1882 29.853 20.3344 28.4759 17.262 28.0829C14.1896 27.69 11.0709 28.3032 8.39087 29.8272C7.47753 30.3527 6.41139 30.5644 5.36138 30.4289C4.31136 30.2933 3.33754 29.8182 2.59422 29.0788Z" fill="url(#paint1_linear_1_85)"/>
<defs>
<linearGradient id="paint0_linear_1_85" x1="30.4576" y1="4.34405" x2="10.3005" y2="21.262" gradientUnits="userSpaceOnUse">
<stop stop-color="#22BFFF"/>
<stop offset="0.15" stop-color="#22BFFF" stop-opacity="0.84"/>
<stop offset="0.57" stop-color="#22BFFF" stop-opacity="0.39"/>
<stop offset="0.87" stop-color="#22BFFF" stop-opacity="0.11"/>
<stop offset="1" stop-color="#22BFFF" stop-opacity="0"/>
</linearGradient>
<linearGradient id="paint1_linear_1_85" x1="1.61931" y1="25.4624" x2="31.8037" y2="25.2376" gradientUnits="userSpaceOnUse">
<stop stop-color="#FFC99E"/>
<stop offset="0.67" stop-color="#FF87A4"/>
<stop offset="1" stop-color="#FF6BA6"/>
</linearGradient>
</defs>
</svg>
